<?xml version="1.0" encoding="utf-8"?>
<!-- Generator: Adobe Illustrator 17.0.0, SVG Export Plug-In . SVG Version: 6.00 Build 0)  -->
<!DOCTYPE svg PUBLIC "-//W3C//DTD SVG 1.1//EN" "http://www.w3.org/Graphics/SVG/1.1/DTD/svg11.dtd">
<svg version="1.1" id="Layer_1" xmlns="http://www.w3.org/2000/svg" xmlns:xlink="http://www.w3.org/1999/xlink" x="0px" y="0px"
	 width="850.39px" height="850.39px" viewBox="0 0 850.39 850.39" enable-background="new 0 0 850.39 850.39" xml:space="preserve">
<path fill="#FF8A80" d="M118.704,649.188l-31.238-18.061L435.85,27.732l31.237,18.061L118.704,649.188z"/>
<path fill="#FF8A80" d="M80.282,582.908h696.824v36.122H80.282V582.908z"/>
<path fill="#FF8A80" d="M442.609,804.467L94.084,603.241l18.061-31.238L460.67,773.23L442.609,804.467z M745.385,279.961
	L396.832,78.763l18.061-31.238l348.525,201.226L745.385,279.961z"/>
<path fill="#FF8A80" d="M112.23,279.847L94.169,248.61L443.006,47.327l18.061,31.238L112.23,279.847z"/>
<path fill="#FF8A80" d="M738.968,649.188L390.527,45.737l31.238-18.061l348.44,603.452L738.968,649.188z M107.913,224.642h36.122
	v402.453h-36.122V224.642z M713.58,224.642h36.122v402.453H713.58V224.642z"/>
<path fill="#FF8A80" d="M436.475,789.161l-15.761-27.319L723.86,586.827l15.761,27.319L436.475,789.161z"/>
<path fill="#FF8A80" d="M797.552,638.852c-21.01,36.283-67.408,48.74-103.765,27.858c-36.283-21.01-48.74-67.408-27.858-103.765
	c21.01-36.283,67.408-48.74,103.765-27.858c36.548,21.099,48.958,67.445,27.83,103.765 M191.459,288.821
	c-21.01,36.283-67.408,48.74-103.765,27.858c-36.3-21.011-48.759-67.43-27.858-103.794c21.01-36.283,67.408-48.74,103.765-27.858
	c36.283,21.01,48.74,67.408,27.858,103.765 M60.063,638.852c-20.882-36.357-8.425-82.755,27.858-103.765
	c36.357-20.882,82.755-8.425,103.765,27.858c20.882,36.357,8.425,82.755-27.858,103.765c-36.548,20.872-82.921,8.519-103.765-27.83
	 M666.156,288.85c-20.882-36.357-8.425-82.755,27.858-103.765c36.357-20.882,82.755-8.425,103.765,27.858
	c20.882,36.357,8.425,82.755-27.858,103.765C733.564,337.589,687.166,325.133,666.156,288.85 M428.808,851.835
	c-41.938,0-75.936-33.998-75.936-75.936c0-41.938,33.997-75.936,75.936-75.936s75.936,33.997,75.936,75.936c0,0.009,0,0.019,0,0.028
	C504.634,817.815,470.696,851.741,428.808,851.835 M428.808,151.774c-41.875,0.063-75.873-33.833-75.936-75.708
	c0-0.076,0-0.152,0-0.227c0-41.93,33.991-75.921,75.921-75.921c41.93,0,75.921,33.991,75.921,75.921
	c0.047,41.875-33.861,75.86-75.737,75.907c-0.057,0-0.114,0-0.171,0"/>
</svg>
