<svg width="942" height="592" viewBox="0 0 942 592" fill="none" xmlns="http://www.w3.org/2000/svg">
<path d="M223.594 568.221V572.134C223.594 574.568 224.074 576.978 225.005 579.227C225.937 581.476 227.302 583.52 229.023 585.241C230.745 586.962 232.788 588.328 235.037 589.259C237.286 590.191 239.697 590.67 242.131 590.67H735.585C738.019 590.67 740.43 590.191 742.679 589.259C744.928 588.328 746.971 586.962 748.692 585.241C750.414 583.52 751.779 581.476 752.711 579.227C753.642 576.978 754.122 574.568 754.122 572.134V568.221H223.594Z" fill="#00F255" stroke="#1A1A1A" stroke-width="3.74008" stroke-linecap="round" stroke-linejoin="round"/>
<path d="M754.122 227.612C754.122 225.178 753.642 222.767 752.711 220.518C751.779 218.269 750.414 216.226 748.692 214.505C746.971 212.783 744.928 211.418 742.679 210.486C740.43 209.555 738.019 209.075 735.585 209.075H242.131C239.697 209.075 237.286 209.555 235.037 210.486C232.788 211.418 230.745 212.783 229.023 214.505C227.302 216.226 225.937 218.269 225.005 220.518C224.074 222.767 223.594 225.178 223.594 227.612V568.221H754.122V227.612Z" fill="white" stroke="#1A1A1A" stroke-width="3.74008" stroke-linecap="round" stroke-linejoin="round"/>
<path d="M385.454 131.155C385.06 132.857 384.861 134.597 384.86 136.344V191.022C384.86 197.137 387.289 203.001 391.613 207.325C395.937 211.649 401.802 214.078 407.917 214.078H690.59C696.705 214.078 702.569 211.649 706.893 207.325C711.217 203.001 713.646 197.137 713.646 191.022V136.344C713.645 134.597 713.446 132.857 713.053 131.155H385.454Z" fill="white" stroke="#1A1A1A" stroke-width="3.74008" stroke-linecap="round" stroke-linejoin="round"/>
<path d="M693.12 143.066H407.835C406.279 143.066 405.018 144.328 405.018 145.884V150.786C405.018 152.342 406.279 153.604 407.835 153.604H693.12C694.676 153.604 695.937 152.342 695.937 150.786V145.884C695.937 144.328 694.676 143.066 693.12 143.066Z" fill="white" stroke="#1A1A1A" stroke-width="3.74008" stroke-linecap="round" stroke-linejoin="round"/>
<path d="M693.12 165.057H407.835C406.279 165.057 405.018 166.319 405.018 167.875V172.777C405.018 174.333 406.279 175.594 407.835 175.594H693.12C694.676 175.594 695.937 174.333 695.937 172.777V167.875C695.937 166.319 694.676 165.057 693.12 165.057Z" fill="white" stroke="#1A1A1A" stroke-width="3.74008" stroke-linecap="round" stroke-linejoin="round"/>
<path d="M693.12 187.048H407.835C406.279 187.048 405.018 188.31 405.018 189.866V194.768C405.018 196.324 406.279 197.585 407.835 197.585H693.12C694.676 197.585 695.937 196.324 695.937 194.768V189.866C695.937 188.31 694.676 187.048 693.12 187.048Z" fill="white" stroke="#1A1A1A" stroke-width="3.74008" stroke-linecap="round" stroke-linejoin="round"/>
<path d="M690.59 113.287H407.917C402.704 113.289 397.646 115.056 393.566 118.3C389.487 121.545 386.627 126.076 385.454 131.155H713.053C711.879 126.076 709.019 121.545 704.94 118.3C700.86 115.056 695.802 113.289 690.59 113.287Z" fill="#00F255" stroke="#1A1A1A" stroke-width="3.74008" stroke-linecap="round" stroke-linejoin="round"/>
<path d="M520.754 269.961H257.118V552.535H520.754V269.961Z" stroke="#1A1A1A" stroke-width="3.74008" stroke-linecap="round" stroke-linejoin="round" stroke-dasharray="22.44 22.44"/>
<path d="M347.834 477.123H278.571V529.935H347.834V477.123Z" stroke="#1A1A1A" stroke-width="3.74008" stroke-linecap="round" stroke-linejoin="round" stroke-dasharray="22.44 22.44"/>
<path d="M497.978 395.974H278.571V448.786H497.978V395.974Z" stroke="#1A1A1A" stroke-width="3.74008" stroke-linecap="round" stroke-linejoin="round" stroke-dasharray="22.44 22.44"/>
<path d="M492.892 295.846H283.658C280.848 295.846 278.571 298.123 278.571 300.932V357.143C278.571 359.952 280.848 362.229 283.658 362.229H492.892C495.701 362.229 497.978 359.952 497.978 357.143V300.932C497.978 298.123 495.701 295.846 492.892 295.846Z" stroke="#1A1A1A" stroke-width="3.74008" stroke-linecap="round" stroke-linejoin="round" stroke-dasharray="22.44 22.44"/>
<path d="M438.901 477.123H369.638V529.935H438.901V477.123Z" stroke="#1A1A1A" stroke-width="3.74008" stroke-linecap="round" stroke-linejoin="round" stroke-dasharray="22.44 22.44"/>
<path d="M720.598 269.961H560.5V552.535H720.598V269.961Z" stroke="#1A1A1A" stroke-width="3.74008" stroke-linecap="round" stroke-linejoin="round" stroke-dasharray="22.44 22.44"/>
<path d="M393.717 290.348H380.278V301.343H393.717V290.348Z" fill="white" stroke="#1A1A1A" stroke-width="3.74008" stroke-linecap="round" stroke-linejoin="round"/>
<path d="M393.717 355.175H380.278V366.171H393.717V355.175Z" fill="white" stroke="#1A1A1A" stroke-width="3.74008" stroke-linecap="round" stroke-linejoin="round"/>
<path d="M285.29 324.709H271.852V335.704H285.29V324.709Z" fill="white" stroke="#1A1A1A" stroke-width="3.74008" stroke-linecap="round" stroke-linejoin="round"/>
<path d="M504.698 324.709H491.259V335.704H504.698V324.709Z" fill="white" stroke="#1A1A1A" stroke-width="3.74008" stroke-linecap="round" stroke-linejoin="round"/>
<path d="M612.31 228.908H411.22C407.795 228.908 405.018 231.685 405.018 235.11V245.902C405.018 249.327 407.795 252.104 411.22 252.104H612.31C615.735 252.104 618.512 249.327 618.512 245.902V235.11C618.512 231.685 615.735 228.908 612.31 228.908Z" stroke="#1A1A1A" stroke-width="3.74008" stroke-linecap="round" stroke-linejoin="round"/>
<path d="M843.917 322.252C849.156 322.252 853.403 318.005 853.403 312.766C853.403 307.527 849.156 303.281 843.917 303.281C838.678 303.281 834.432 307.527 834.432 312.766C834.432 318.005 838.678 322.252 843.917 322.252Z" fill="#031C0C" stroke="#1A1A1A" stroke-width="3.74008" stroke-linecap="round" stroke-linejoin="round"/>
<path d="M811.235 246.352C824.046 246.352 834.431 235.966 834.431 223.156C834.431 210.345 824.046 199.96 811.235 199.96C798.425 199.96 788.04 210.345 788.04 223.156C788.04 235.966 798.425 246.352 811.235 246.352Z" fill="white" stroke="#1A1A1A" stroke-width="3.74008" stroke-linecap="round" stroke-linejoin="round"/>
<path d="M601.618 910.548C585.802 906.448 562.519 907.678 554.139 892.357C553.322 894.602 553.893 897.349 556.128 900.458C562.16 908.849 590.617 914.257 611.869 914.118C618.325 914.076 623.519 910.36 624.238 904.955C624.302 904.449 624.337 903.939 624.343 903.429C618.442 909.126 610.174 912.259 601.618 910.548ZM555.746 563.64C555.746 563.64 628.716 548.5 630.881 552.492C633.047 556.484 653.789 575.552 645.084 612.203C636.379 648.854 607.974 699.708 607.516 739.108C607.058 778.508 627.674 861.449 621.719 877.933C606.142 888.462 587.358 878.4 584.609 877.933C574.53 851.811 542.002 729.487 550.707 682.757C559.411 636.026 566.284 609.454 566.284 609.454" fill="white"/>
<path d="M555.746 563.64C555.746 563.64 628.716 548.5 630.881 552.492C633.047 556.484 653.789 575.552 645.084 612.203C636.379 648.854 607.974 699.708 607.516 739.108C607.058 778.508 627.675 861.449 621.719 877.933C606.142 888.462 587.358 878.4 584.609 877.933C574.53 851.811 542.002 729.487 550.707 682.757C559.411 636.026 566.284 609.454 566.284 609.454M601.618 910.548C585.802 906.448 562.519 907.678 554.139 892.357C553.322 894.602 553.893 897.349 556.128 900.458C562.16 908.849 590.617 914.257 611.869 914.118C618.325 914.075 623.519 910.36 624.238 904.955C624.302 904.449 624.337 903.939 624.343 903.429C618.442 909.126 610.174 912.259 601.618 910.548Z" stroke="#1A1A1A" stroke-width="3.74008" stroke-linecap="round" stroke-linejoin="round"/>
<path d="M579.111 600.749C565.825 663.973 531.465 675.884 513.597 719.408C495.73 762.931 509.474 870.136 509.474 870.136C509.474 870.136 504.435 881.132 477.404 877.008C464.118 871.511 453.123 763.848 444.876 712.994C436.63 662.14 502.144 550.354 502.144 550.354L618.512 544.398" fill="white"/>
<path d="M579.111 600.749C565.825 663.973 531.465 675.884 513.597 719.408C495.73 762.931 509.474 870.136 509.474 870.136C509.474 870.136 504.435 881.132 477.404 877.008C464.118 871.511 453.123 763.848 444.876 712.994C436.63 662.14 502.144 550.354 502.144 550.354L618.512 544.398" stroke="#1A1A1A" stroke-width="3.74008" stroke-linecap="round" stroke-linejoin="round"/>
<path d="M497.002 559.461C497.002 559.461 517.873 574.33 566.131 572.955C614.388 571.581 635.566 558.809 635.566 558.809L630.881 552.492L499.242 554.324L497.002 559.461Z" fill="#00F255" stroke="#1A1A1A" stroke-width="3.74008" stroke-linecap="round" stroke-linejoin="round"/>
<path d="M688.607 211.788C688.607 211.788 677.765 185.368 663.868 181.398C649.971 177.427 636.472 187.277 639.289 191.4C642.106 195.524 653.636 197.28 652.72 200.334C651.803 203.388 643.709 201.098 644.778 204.61C645.847 208.123 671.292 216.96 674.71 218.66C680.692 221.635 691.293 215.481 688.607 211.788Z" fill="white" stroke="#1A1A1A" stroke-width="3.74008" stroke-linecap="round" stroke-linejoin="round"/>
<path d="M587.969 373.206C587.969 373.206 634.088 361.905 649.97 340.831C665.853 319.756 686.316 269.666 668.296 216.827C676.848 208.275 690.287 206.137 694.563 213.773C698.839 221.409 721.135 289.519 711.056 333.806C700.977 378.093 655.163 411.079 627.98 422.38C606.294 412.301 587.969 373.206 587.969 373.206Z" fill="#06FC5C" stroke="#1A1A1A" stroke-width="3.74008" stroke-linecap="round" stroke-linejoin="round"/>
<path d="M486.708 467.969C480.761 497.991 480.218 539.819 492.676 552.492C516.194 572.955 601.713 574.788 635.31 555.241C666.159 519.506 636.15 414.744 619.428 390.234C602.706 365.723 581.173 369.388 546.126 374.886C511.078 380.384 504.893 403.062 458.621 412.453C412.348 421.845 375.392 371.679 369.894 364.043C364.396 356.407 347.292 375.344 347.292 375.344C347.292 375.344 410.058 529.279 552.998 442.691C552.998 442.691 564.146 435.513 562.924 424.518" fill="#06FC5C"/>
<path d="M486.708 467.969C480.761 497.991 480.218 539.819 492.676 552.492C516.194 572.955 601.713 574.788 635.31 555.241C666.159 519.506 636.15 414.744 619.428 390.234C602.706 365.723 581.173 369.388 546.126 374.886C511.078 380.384 504.893 403.062 458.621 412.453C412.348 421.845 375.392 371.679 369.894 364.043C364.396 356.407 347.292 375.344 347.292 375.344C347.292 375.344 410.058 529.279 552.998 442.691C552.998 442.691 564.146 435.513 562.924 424.518" stroke="#1A1A1A" stroke-width="3.74008" stroke-linecap="round" stroke-linejoin="round"/>
<path d="M547.806 352.284L544.675 376.566C544.675 376.566 561.932 383.972 576.058 375.344C575.341 366.904 574.117 358.515 572.392 350.223C572.392 350.223 599.117 304.485 548.722 297.002L533.603 295.475C533.603 295.475 521.844 331.821 531.313 343.274C540.781 354.728 557.732 352.284 557.732 352.284" fill="white"/>
<path d="M547.806 352.284L544.675 376.566C544.675 376.566 561.932 383.972 576.058 375.344C575.341 366.904 574.117 358.515 572.392 350.223C572.392 350.223 599.117 304.485 548.722 297.002L533.603 295.475C533.603 295.475 521.844 331.821 531.313 343.274C540.781 354.728 557.732 352.284 557.732 352.284" stroke="#1A1A1A" stroke-width="3.74008" stroke-linecap="round" stroke-linejoin="round"/>
<path d="M556.052 321.589H551.623C551.623 321.589 552.387 313.495 547.194 311.052C542.002 308.608 526.273 298.071 530.091 283.716C533.908 269.361 536.352 269.361 536.352 269.361C536.352 269.361 549.638 286.312 564.909 288.45C580.181 290.588 613.93 305.248 582.471 355.033C573.944 358.517 565.673 352.895 565.673 352.895C565.673 352.895 566.589 336.249 563.688 334.875L559.87 334.111C559.87 334.111 570.101 331.363 569.185 324.796C568.269 318.229 560.633 312.884 556.052 321.589Z" fill="#00F255" stroke="#1A1A1A" stroke-width="3.74008" stroke-linecap="round" stroke-linejoin="round"/>
<path d="M374.237 185.917C357.61 190.392 338.695 184.876 327.079 172.166C323.362 168.098 320.378 163.405 316.653 159.345C312.929 155.285 308.198 151.771 302.73 151.094C294.131 150.03 286.3 156.126 280.73 162.763C261.958 185.128 257.06 217.672 266.351 245.354C275.641 273.035 298.144 295.473 325.038 306.843" stroke="#1A1A1A" stroke-width="5.61012" stroke-linecap="round" stroke-linejoin="round"/>
<path d="M321.636 280.509L327.592 309.372L293.231 312.766" stroke="#1A1A1A" stroke-width="5.61012" stroke-linecap="round" stroke-linejoin="round"/>
<path d="M367.298 365.723C367.479 364.669 357.524 330.904 337.977 324.949C318.43 318.993 333.395 329.072 337.977 331.821C342.558 334.569 342.864 338.845 338.893 340.525C334.923 342.205 323.011 358.277 339.199 362.229C345.918 363.738 343.322 362.229 343.322 362.229L351.721 374.275C351.721 374.275 365.618 375.497 367.298 365.723Z" fill="white" stroke="#1A1A1A" stroke-width="3.74008" stroke-linecap="round" stroke-linejoin="round"/>
<path d="M780.582 426.954L786.196 441.173L795.07 445.447L809.687 440.97L818.104 451.525L810.487 464.779L812.679 474.382L825.292 483.019L822.289 496.18L807.177 498.488L801.035 506.189L802.147 521.436L789.985 527.293L778.758 516.918H768.908L757.681 527.293L745.518 521.436L746.63 506.189L740.489 498.488L725.377 496.179L722.373 483.019L734.987 474.382L737.178 464.779L729.561 451.524L737.978 440.97L752.595 445.447L761.47 441.173L767.083 426.954L780.582 426.954Z" fill="#00F255" stroke="#1A1A1A" stroke-width="3.74008" stroke-linecap="round" stroke-linejoin="round"/>
<path d="M773.832 496.064C783.7 496.064 791.7 488.065 791.7 478.197C791.7 468.329 783.7 460.329 773.832 460.329C763.964 460.329 755.965 468.329 755.965 478.197C755.965 488.065 763.964 496.064 773.832 496.064Z" fill="white" stroke="#1A1A1A" stroke-width="3.74008" stroke-linecap="round" stroke-linejoin="round"/>
<path d="M127.648 474.082C146.383 474.082 161.572 458.894 161.572 440.158C161.572 421.423 146.383 406.234 127.648 406.234C108.912 406.234 93.7236 421.423 93.7236 440.158C93.7236 458.894 108.912 474.082 127.648 474.082Z" fill="white" stroke="#1A1A1A" stroke-width="3.74008" stroke-linecap="round" stroke-linejoin="round"/>
<path d="M145.869 455.294H109.427C109.427 455.294 109.089 451.076 111.281 450.061C113.478 449.051 115.16 428.302 121.407 425.771C122.382 425.374 123.203 425.041 123.897 424.761C123.698 424.279 123.595 423.762 123.595 423.241C123.595 422.643 123.726 422.052 123.981 421.511C124.236 420.97 124.607 420.493 125.068 420.112C125.53 419.732 126.069 419.458 126.649 419.311C127.228 419.164 127.833 419.147 128.42 419.261C129.007 419.375 129.561 419.618 130.043 419.972C130.525 420.326 130.923 420.782 131.208 421.308C131.492 421.834 131.657 422.416 131.69 423.013C131.723 423.61 131.624 424.207 131.399 424.761C132.089 425.041 132.914 425.374 133.889 425.771C140.131 428.302 141.818 449.051 144.011 450.061C146.203 451.076 145.869 455.294 145.869 455.294ZM133.478 455.294C133.478 456.841 132.864 458.324 131.77 459.418C130.676 460.512 129.193 461.126 127.646 461.126C126.099 461.126 124.615 460.512 123.522 459.418C122.428 458.324 121.813 456.841 121.813 455.294H133.478Z" fill="#00F255" stroke="#1A1A1A" stroke-width="3.74008" stroke-linecap="round" stroke-linejoin="round"/>
</svg>
