<svg width="574" height="574" viewBox="0 0 574 574" fill="none" xmlns="http://www.w3.org/2000/svg">
<g clip-path="url(#clip0_268_226)">
<path d="M53.2094 446.723H527.91C539.315 422.315 531.518 394.781 513.433 382.965C491.443 368.598 455.007 377.966 441.046 408.872L229.984 431.985C219.721 400.788 189.785 382.953 162.931 388.299C143.602 392.147 127.653 407.651 120.77 427.921C114.717 407.503 92.7738 396.828 74.5442 403.538C58.16 409.569 48.2894 428.349 53.2094 446.723Z" fill="white" stroke="#1A1A1A" stroke-width="3.72425" stroke-linecap="round" stroke-linejoin="round"/>
<path d="M485.119 210.157H456.78V236.229H485.119V210.157Z" fill="white" stroke="#1A1A1A" stroke-width="3.72425" stroke-linecap="round" stroke-linejoin="round"/>
<path d="M472.157 220.975H444.688V184.936H468.346L472.157 188.748V220.975Z" fill="#031C0C" stroke="#1A1A1A" stroke-width="1.86212" stroke-linecap="round" stroke-linejoin="round"/>
<path d="M16.647 446.545H557.353" stroke="#1A1A1A" stroke-width="5.58637" stroke-linecap="round" stroke-linejoin="round"/>
<path d="M401.765 124.608C401.765 120.514 400.139 116.588 397.244 113.693C394.349 110.798 390.423 109.172 386.329 109.172H149.819C147.792 109.172 145.784 109.571 143.912 110.347C142.039 111.122 140.337 112.259 138.904 113.693C137.47 115.126 136.333 116.828 135.557 118.701C134.782 120.574 134.382 122.581 134.382 124.608V136.737H401.765V124.608Z" fill="#031C0C" stroke="#1A1A1A" stroke-width="1.86212" stroke-linecap="round" stroke-linejoin="round"/>
<path d="M359.094 118.245H304.405C302.913 118.245 301.703 119.455 301.703 120.947V125.605C301.703 127.097 302.913 128.306 304.405 128.306H359.094C360.586 128.306 361.795 127.097 361.795 125.605V120.947C361.795 119.455 360.586 118.245 359.094 118.245Z" fill="white" stroke="#1A1A1A" stroke-width="3.72425" stroke-linecap="round" stroke-linejoin="round"/>
<path d="M382.883 128.651C385.852 128.651 388.258 126.244 388.258 123.276C388.258 120.307 385.852 117.901 382.883 117.901C379.914 117.901 377.508 120.307 377.508 123.276C377.508 126.244 379.914 128.651 382.883 128.651Z" fill="white" stroke="#1A1A1A" stroke-width="3.72425" stroke-linecap="round" stroke-linejoin="round"/>
<path d="M164.704 128.307C167.482 128.307 169.735 126.054 169.735 123.276C169.735 120.497 167.482 118.245 164.704 118.245C161.926 118.245 159.673 120.497 159.673 123.276C159.673 126.054 161.926 128.307 164.704 128.307Z" fill="white" stroke="#1A1A1A" stroke-width="3.72425" stroke-linecap="round" stroke-linejoin="round"/>
<path d="M134.382 136.737V299.038C134.382 301.065 134.782 303.072 135.557 304.945C136.333 306.818 137.47 308.519 138.904 309.953C140.337 311.386 142.039 312.523 143.912 313.299C145.784 314.075 147.792 314.474 149.819 314.474H386.329C388.356 314.474 390.363 314.075 392.236 313.299C394.109 312.523 395.81 311.386 397.244 309.953C398.677 308.519 399.814 306.818 400.59 304.945C401.366 303.072 401.765 301.065 401.765 299.038V136.737H134.382Z" fill="white" stroke="#1A1A1A" stroke-width="3.72425" stroke-linecap="round" stroke-linejoin="round"/>
<path d="M134.382 160.443H401.765" stroke="#1A1A1A" stroke-width="3.72425" stroke-linecap="round" stroke-linejoin="round" stroke-dasharray="22.34 22.34"/>
<path d="M134.382 274.079H401.765" stroke="#1A1A1A" stroke-width="3.72425" stroke-linecap="round" stroke-linejoin="round" stroke-dasharray="22.34 22.34"/>
<path d="M320.172 136.737V314.474" stroke="#1A1A1A" stroke-width="3.72425" stroke-linecap="round" stroke-linejoin="round" stroke-dasharray="22.34 22.34"/>
<path d="M386.008 173.107H337.13C335.887 173.107 334.88 174.115 334.88 175.358V179.239C334.88 180.481 335.887 181.489 337.13 181.489H386.008C387.25 181.489 388.258 180.481 388.258 179.239V175.358C388.258 174.115 387.25 173.107 386.008 173.107Z" fill="white" stroke="#1A1A1A" stroke-width="3.72425" stroke-linecap="round" stroke-linejoin="round"/>
<path d="M218.656 173.107H157.834C156.591 173.107 155.583 174.115 155.583 175.358V253.915C155.583 255.158 156.591 256.166 157.834 256.166H218.656C219.899 256.166 220.907 255.158 220.907 253.915V175.358C220.907 174.115 219.899 173.107 218.656 173.107Z" stroke="#1A1A1A" stroke-width="3.72425" stroke-linecap="round" stroke-linejoin="round" stroke-dasharray="22.34 22.34"/>
<path d="M299.109 173.107H238.287C237.044 173.107 236.037 174.115 236.037 175.358V253.915C236.037 255.158 237.044 256.166 238.287 256.166H299.109C300.352 256.166 301.36 255.158 301.36 253.915V175.358C301.36 174.115 300.352 173.107 299.109 173.107Z" stroke="#1A1A1A" stroke-width="3.72425" stroke-linecap="round" stroke-linejoin="round" stroke-dasharray="22.34 22.34"/>
<path d="M386.008 194.696H337.13C335.887 194.696 334.88 195.704 334.88 196.947V200.827C334.88 202.07 335.887 203.078 337.13 203.078H386.008C387.25 203.078 388.258 202.07 388.258 200.827V196.947C388.258 195.704 387.25 194.696 386.008 194.696Z" fill="white" stroke="#1A1A1A" stroke-width="3.72425" stroke-linecap="round" stroke-linejoin="round"/>
<path d="M386.008 216.285H337.13C335.887 216.285 334.88 217.293 334.88 218.536V222.416C334.88 223.659 335.887 224.667 337.13 224.667H386.008C387.25 224.667 388.258 223.659 388.258 222.416V218.536C388.258 217.293 387.25 216.285 386.008 216.285Z" fill="white" stroke="#1A1A1A" stroke-width="3.72425" stroke-linecap="round" stroke-linejoin="round"/>
<path d="M386.008 237.874H337.13C335.887 237.874 334.88 238.882 334.88 240.124V244.005C334.88 245.248 335.887 246.256 337.13 246.256H386.008C387.25 246.256 388.258 245.248 388.258 244.005V240.124C388.258 238.882 387.25 237.874 386.008 237.874Z" fill="white" stroke="#1A1A1A" stroke-width="3.72425" stroke-linecap="round" stroke-linejoin="round"/>
<path d="M463.709 407.728C462.486 392.475 458.36 377.429 458.854 362.135C459.564 340.132 469.71 317.513 462.068 296.867C457.199 283.71 445.614 273.888 432.772 268.242C419.93 262.597 405.807 260.633 391.855 259.177C374.387 257.354 356.626 256.244 339.353 259.417C322.079 262.59 305.15 270.44 293.932 283.953C281.314 299.151 277.205 319.673 276.084 339.395C275.377 351.832 276.497 356.967 276.552 363.939L234.879 373.226C225.484 385.952 219.646 400.95 217.966 416.678C217.072 425.171 217.51 434.155 221.651 441.624C222.643 443.407 223.827 445.077 225.182 446.603C226.838 447.798 228.717 448.649 230.707 449.106C243.177 451.6 254.934 451.244 267.404 449.462C291.632 445.543 317.284 437.705 340.087 450.531C346.5 454.094 353.982 455.519 361.464 455.519C382.129 455.163 402.793 456.944 423.814 452.313C425.239 451.956 427.021 451.6 428.446 451.244C439.58 448.413 450.714 444.381 459.942 437.987C463.76 428.714 464.522 417.88 463.709 407.728Z" fill="#06FC5C" stroke="#1A1A1A" stroke-width="3.72425" stroke-linecap="round" stroke-linejoin="round"/>
<path d="M423.814 452.312C402.793 456.944 382.128 455.163 361.464 455.519C353.982 455.519 346.5 454.094 340.087 450.531C317.284 437.705 291.632 445.543 267.404 449.462C254.934 451.244 243.177 451.6 230.707 449.106C228.717 448.649 226.838 447.798 225.182 446.603C231.077 453.274 239.963 457.262 248.884 458.667C259.838 460.391 271.01 458.77 281.98 457.149C290.402 455.904 298.823 454.66 307.245 453.416C341.43 463.043 377.034 466.619 412.45 463.985C426.54 462.928 441.604 460.396 451.687 450.497C455.338 446.912 458.024 442.645 459.942 437.986C450.714 444.381 439.58 448.413 428.446 451.244C427.021 451.6 425.239 451.956 423.814 452.312Z" fill="#031C0C" stroke="#1A1A1A" stroke-width="1.86212" stroke-linecap="round" stroke-linejoin="round"/>
<path d="M427.403 341.094C416.649 377.128 379.439 402.351 356.694 397.386C348.648 395.631 336.143 393.798 322.558 392.437C298.569 390.04 271.2 389.131 259.046 392.766C258.637 392.889 258.246 393.017 257.875 393.148C251.443 387.758 245.746 384.524 236.375 381.262L238.928 377.828L274.22 330.352L305.838 287.817C305.838 287.817 316.588 257.633 366.207 265.077C415.825 272.516 438.152 305.059 427.403 341.094Z" fill="#B0FFCC" stroke="#1A1A1A" stroke-width="3.72425" stroke-linecap="round" stroke-linejoin="round"/>
<path d="M103.877 274.079L115.638 316.714H119.13L106.634 274.079H103.877Z" fill="#00F255" stroke="#1A1A1A" stroke-width="3.72425" stroke-linecap="round" stroke-linejoin="round"/>
<path d="M171.779 317.632H119.129V322.135H171.779V317.632Z" fill="#00F255" stroke="#1A1A1A" stroke-width="3.72425" stroke-linecap="round" stroke-linejoin="round"/>
<path d="M171.779 322.135H30.7373V328.291H171.779V322.135Z" fill="white" stroke="#1A1A1A" stroke-width="3.72425" stroke-linecap="round" stroke-linejoin="round"/>
<path d="M171.779 328.291H30.7373V337.297H171.779V328.291Z" fill="white" stroke="#1A1A1A" stroke-width="3.72425" stroke-linecap="round" stroke-linejoin="round"/>
<path d="M123.704 437.987H78.8125V446.993H123.704V437.987Z" fill="#00F255" stroke="#1A1A1A" stroke-width="3.72425" stroke-linecap="round" stroke-linejoin="round"/>
<path d="M106.267 337.698H96.2495V437.692H106.267V337.698Z" fill="white" stroke="#1A1A1A" stroke-width="3.72425" stroke-linecap="round" stroke-linejoin="round"/>
<path d="M132.16 445.421C131.885 445.961 131.704 446.543 131.626 447.143C137.828 450.313 164.566 449.9 165.118 449.624C165.217 449.574 165.433 449.134 165.721 448.435C154.429 449.201 143.16 448.687 132.16 445.421Z" fill="#00F255" stroke="#1A1A1A" stroke-width="3.72425" stroke-linecap="round" stroke-linejoin="round"/>
<path d="M156.71 435.583C156.71 435.583 135.895 437.962 132.16 445.421C143.16 448.688 154.429 449.202 165.721 448.435C166.592 446.324 168.137 441.821 169.216 438.322C165.173 438.187 161.324 436.538 158.187 433.901C157.366 434.84 156.71 435.583 156.71 435.583Z" fill="white" stroke="#1A1A1A" stroke-width="3.72425" stroke-linecap="round" stroke-linejoin="round"/>
<path d="M161.396 430.145C161.145 430.508 159.465 432.442 158.188 433.901C161.324 436.538 165.173 438.187 169.216 438.322C169.77 436.526 170.202 434.993 170.355 434.187C170.906 431.293 161.396 430.145 161.396 430.145Z" fill="#00F255" stroke="#1A1A1A" stroke-width="3.72425" stroke-linecap="round" stroke-linejoin="round"/>
<path d="M197.598 350.711L158.272 431.385C158.272 431.385 165.439 436.53 172.973 435.428C181.243 426.423 230.955 374.049 231.918 363.391C232.882 352.732 197.598 350.711 197.598 350.711Z" fill="white" stroke="#1A1A1A" stroke-width="3.72425" stroke-linecap="round" stroke-linejoin="round"/>
<path d="M205.651 433.315C204.817 431.12 204.17 429.434 204.191 428.812L204.26 426.814H194.406L194.636 432.145C198.138 433.952 202.21 434.542 205.651 433.315Z" fill="#00F255" stroke="#1A1A1A" stroke-width="3.72425" stroke-linecap="round" stroke-linejoin="round"/>
<path d="M205.65 433.315C202.209 434.542 198.138 433.952 194.635 432.145L194.75 434.808C194.75 434.808 175.473 435.984 173.311 447.402C182.711 450.073 193.751 449.664 203.735 448.184C205.465 447.752 207.557 446.957 209.133 445.596C208.824 441.711 206.994 436.851 205.65 433.315Z" fill="white" stroke="#1A1A1A" stroke-width="3.72425" stroke-linecap="round" stroke-linejoin="round"/>
<path d="M173.311 447.402C173.185 448.066 173.118 448.741 173.111 449.417C185.102 451.278 206.19 450.864 208.739 449.417C209.152 448.36 209.248 447.046 209.133 445.596C207.557 446.957 205.465 447.752 203.736 448.184C193.751 449.664 182.711 450.073 173.311 447.402Z" fill="#00F255" stroke="#1A1A1A" stroke-width="3.72425" stroke-linecap="round" stroke-linejoin="round"/>
<path d="M322.558 392.437C298.569 390.04 271.2 389.131 259.046 392.766C252.72 388.941 246.015 384.019 238.927 377.828C234.631 374.077 230.196 369.847 225.622 365.137L224.384 363.483C224.384 363.483 220.939 408.782 205.317 430.1C195.395 430.649 191.903 426.055 191.903 426.055C191.903 426.055 175.547 342.072 201.272 331.968C227.002 321.86 247.767 332.885 247.767 332.885L274.219 330.352L326.924 325.306C326.924 325.306 337.399 333.573 338.779 357.141C339.317 366.367 333.942 381.827 322.558 392.437Z" fill="white" stroke="#1A1A1A" stroke-width="3.72425" stroke-linecap="round" stroke-linejoin="round"/>
<path d="M241.818 330.953C241.818 330.953 242.982 341.775 271.791 343.291C300.601 344.807 323.586 338.774 330.378 329.26L325.134 323.972L246.849 330.953H241.818Z" fill="#00F255" stroke="#1A1A1A" stroke-width="3.72425" stroke-linecap="round" stroke-linejoin="round"/>
<path d="M243.954 330.956C243.954 330.956 242.851 339.087 270.968 340.879C299.085 342.671 327.339 332.885 329.406 324.616L324.996 318.965L326.512 316.76C326.512 316.76 309.697 253.497 258.839 243.849C241.887 240.542 230.309 263.696 232.101 279.271C233.893 294.845 243.954 330.956 243.954 330.956Z" fill="#06FC5C" stroke="#1A1A1A" stroke-width="3.72425" stroke-linecap="round" stroke-linejoin="round"/>
<path d="M181.243 287.747C181.243 287.747 171.94 281.2 166.909 283.475C161.878 285.749 159.811 290.71 159.811 294.57C159.811 298.429 169.114 299.462 169.114 299.462L175.11 300.22L181.243 287.747Z" fill="white" stroke="#1A1A1A" stroke-width="3.72425" stroke-linecap="round" stroke-linejoin="round"/>
<path d="M175.041 296.223C174.834 296.223 172.216 289.47 176.902 286.92C181.588 284.37 185.929 286.507 189.995 289.401C194.061 292.295 207.223 303.178 216.113 304.249C216.113 304.249 214.873 311.66 203.157 310.695C191.442 309.73 175.041 296.223 175.041 296.223Z" fill="#06FC5C" stroke="#1A1A1A" stroke-width="3.72425" stroke-linecap="round" stroke-linejoin="round"/>
<path d="M172.974 295.052C172.974 295.052 158.64 289.194 154.781 293.674C150.922 298.153 149.888 308.421 152.093 308.697C154.298 308.972 155.332 303.942 156.779 304.975C158.226 306.009 160.776 310.006 163.877 309.317C166.978 308.628 168.357 303.666 168.357 303.666L172.974 295.052Z" fill="white" stroke="#1A1A1A" stroke-width="3.72425" stroke-linecap="round" stroke-linejoin="round"/>
<path d="M164.842 303.942C164.842 303.942 162.499 293.329 174.766 293.605C186.481 300.22 197.645 309.317 206.603 305.871C215.562 302.426 244.643 275.136 251.397 273.069C258.15 271.001 271.657 266.866 273.173 285.886C274.69 304.906 217.905 337.02 204.674 337.296C191.443 337.571 164.842 303.942 164.842 303.942Z" fill="#06FC5C" stroke="#1A1A1A" stroke-width="3.72425" stroke-linecap="round" stroke-linejoin="round"/>
<path d="M237.384 240.909C237.384 240.909 230.769 226.943 223.418 225.197C216.067 223.451 204.398 239.164 204.398 239.164C204.765 239.715 213.127 260.664 225.164 255.243C225.788 254.912 226.372 254.591 226.917 254.28C229.55 256.695 233.004 267.611 235.455 267.188C237.99 266.77 252.453 255.335 252.545 250.925C251.259 248.26 237.292 241.185 237.384 240.909Z" fill="white" stroke="#1A1A1A" stroke-width="3.72425" stroke-linecap="round" stroke-linejoin="round"/>
<path d="M228.331 256.166L231.918 248.812L226.917 254.28L228.331 256.166Z" fill="#00F255" stroke="#1A1A1A" stroke-width="3.72425" stroke-linecap="round" stroke-linejoin="round"/>
<path d="M185.378 235.993C185.378 235.993 197.438 249.707 207.43 242.265C213.908 236.131 214.666 234.822 214.666 234.822C214.666 234.822 218.801 238.957 221.902 238.819C220.661 236.82 219.972 233.099 223.142 232.341C226.312 231.583 230.318 234.271 229.418 238.061C232.79 241.162 238.096 241.92 239.13 240.748C240.164 239.577 239.819 238.061 238.717 234.34C237.614 230.618 238.648 222.073 233.548 218.283C228.449 214.493 228.724 212.012 224.383 210.84C220.041 209.669 214.942 212.77 212.943 214.561C210.945 216.353 207.292 214.975 203.984 217.938C200.677 220.902 198.747 222.9 197.92 226.621C197.093 230.343 188.134 235.925 185.378 235.993Z" fill="#031C0C" stroke="#1A1A1A" stroke-width="1.86212" stroke-linecap="round" stroke-linejoin="round"/>
<path d="M352.346 368.767C353.686 371.455 341.108 380.304 331.75 384.203C347.384 381.722 352.346 386.684 352.346 386.684" fill="#B0FFCC"/>
<path d="M352.346 368.767C353.686 371.455 341.108 380.304 331.75 384.203C347.384 381.722 352.346 386.684 352.346 386.684" stroke="#1A1A1A" stroke-width="3.72425" stroke-linecap="round" stroke-linejoin="round"/>
<path d="M49.6065 213.566C60.0279 213.566 68.4762 205.118 68.4762 194.696C68.4762 184.275 60.0279 175.827 49.6065 175.827C39.1851 175.827 30.7368 184.275 30.7368 194.696C30.7368 205.118 39.1851 213.566 49.6065 213.566Z" fill="white" stroke="#1A1A1A" stroke-width="3.72425" stroke-linecap="round" stroke-linejoin="round"/>
<path d="M57.8619 202.165C56.6825 201.379 49.6064 194.696 49.6064 194.696V179.954M110.473 133.622L104.706 131.991C104.405 131.906 104.087 131.895 103.781 131.96C103.474 132.024 103.188 132.163 102.947 132.362L98.3341 136.188C98.0567 136.418 97.7205 136.566 97.3635 136.615C97.0065 136.664 96.643 136.612 96.3139 136.465C95.9849 136.318 95.7036 136.082 95.5017 135.783C95.2999 135.485 95.1855 135.136 95.1717 134.776L94.9413 128.787C94.9292 128.474 94.8413 128.169 94.685 127.898C94.5288 127.626 94.3089 127.397 94.0444 127.23L88.9804 124.024C88.6759 123.832 88.4314 123.558 88.2746 123.233C88.1177 122.909 88.0548 122.547 88.0928 122.189C88.1309 121.83 88.2685 121.49 88.49 121.206C88.7115 120.921 89.0081 120.705 89.3463 120.58L94.9707 118.511C95.2645 118.402 95.5277 118.224 95.7374 117.992C95.9472 117.76 96.0973 117.48 96.1748 117.176L97.6584 111.37C97.7476 111.02 97.9327 110.703 98.1927 110.454C98.4528 110.204 98.7775 110.033 99.13 109.958C99.4826 109.884 99.8489 109.909 100.188 110.032C100.526 110.155 100.824 110.37 101.047 110.653L104.753 115.363C104.947 115.609 105.198 115.804 105.484 115.932C105.769 116.06 106.082 116.116 106.394 116.096L112.375 115.712C112.735 115.689 113.094 115.767 113.411 115.938C113.729 116.108 113.993 116.364 114.172 116.676C114.352 116.988 114.441 117.344 114.429 117.705C114.417 118.065 114.304 118.414 114.104 118.714L110.77 123.694C110.596 123.954 110.488 124.253 110.455 124.564C110.421 124.876 110.465 125.19 110.58 125.481L112.793 131.051C112.926 131.386 112.963 131.751 112.899 132.106C112.835 132.461 112.673 132.79 112.432 133.058C112.191 133.325 111.879 133.52 111.533 133.62C111.187 133.719 110.819 133.72 110.473 133.622Z" fill="white"/>
<path d="M57.8619 202.165C56.6825 201.379 49.6064 194.696 49.6064 194.696V179.954M110.473 133.622L104.706 131.991C104.405 131.906 104.087 131.895 103.781 131.96C103.474 132.024 103.188 132.163 102.947 132.362L98.3341 136.188C98.0567 136.418 97.7205 136.566 97.3635 136.615C97.0065 136.664 96.643 136.612 96.3139 136.465C95.9849 136.318 95.7036 136.082 95.5017 135.783C95.2998 135.485 95.1855 135.136 95.1717 134.776L94.9413 128.787C94.9292 128.474 94.8413 128.169 94.685 127.898C94.5288 127.626 94.3089 127.397 94.0444 127.23L88.9804 124.024C88.6759 123.832 88.4314 123.558 88.2746 123.233C88.1177 122.909 88.0548 122.547 88.0928 122.189C88.1309 121.83 88.2685 121.49 88.49 121.206C88.7115 120.921 89.0081 120.705 89.3463 120.58L94.9707 118.511C95.2645 118.402 95.5277 118.224 95.7374 117.992C95.9472 117.76 96.0973 117.48 96.1748 117.176L97.6584 111.37C97.7476 111.02 97.9327 110.703 98.1927 110.454C98.4528 110.204 98.7775 110.033 99.13 109.958C99.4826 109.884 99.8489 109.909 100.188 110.032C100.526 110.155 100.824 110.37 101.047 110.653L104.753 115.363C104.947 115.609 105.198 115.804 105.484 115.932C105.769 116.06 106.082 116.116 106.394 116.096L112.375 115.712C112.735 115.689 113.094 115.767 113.411 115.938C113.729 116.108 113.993 116.364 114.172 116.676C114.352 116.988 114.441 117.344 114.429 117.705C114.417 118.065 114.304 118.414 114.104 118.714L110.77 123.694C110.596 123.954 110.488 124.253 110.455 124.564C110.421 124.876 110.465 125.19 110.58 125.481L112.793 131.051C112.926 131.386 112.963 131.751 112.899 132.106C112.835 132.461 112.673 132.79 112.432 133.058C112.191 133.325 111.879 133.52 111.533 133.62C111.187 133.719 110.819 133.72 110.473 133.622Z" stroke="#1A1A1A" stroke-width="3.72425" stroke-linecap="round" stroke-linejoin="round"/>
<path d="M307.245 453.416C307.245 453.416 332.098 451.348 342.394 447.768C343.865 447.257 345.039 446.714 345.801 446.143" stroke="#1A1A1A" stroke-width="3.72425" stroke-linecap="round" stroke-linejoin="round"/>
</g>
<defs>
<clipPath id="clip0_268_226">
<rect width="574" height="574" fill="white"/>
</clipPath>
</defs>
</svg>
